<svg xmlns="http://www.w3.org/2000/svg" xmlns:xlink="http://www.w3.org/1999/xlink" width="200" height="200" class="icon" p-id="1673" t="1663212159484" version="1.1" viewBox="0 0 1024 1024"><path fill="#555" d="M725.333333 490.666667a64 64 0 1 1 64 64 64 64 0 0 1-64-64m-85.333333 0a149.333333 149.333333 0 1 0 149.333333-149.333334 149.333333 149.333333 0 0 0-149.333333 149.333334z" p-id="1674"/><path fill="#555" d="M277.33333301 490.666667m-1e-8 106.666666a106.666667 106.666667 0 1 0 0-213.333333 106.666667 106.666667 0 1 0 0 213.333333Z" p-id="1675"/><path fill="#555" d="M320 746.666667m0 106.666666a106.666667 106.666667 0 1 0 0-213.333333 106.666667 106.666667 0 1 0 0 213.333333Z" p-id="1676"/><path fill="#555" d="M320 234.666667m0 106.666666a106.666667 106.666667 0 1 0 0-213.333333 106.666667 106.666667 0 1 0 0 213.333333Z" p-id="1677"/><path fill="#555" d="M341.333333 512l0-42.666667 384 0 0 42.666667z" p-id="1678"/><path fill="#555" d="M357.504 282.709333l30.165333-30.16533299 225.06666699 225.06666699-30.165333 30.165333z" p-id="1679"/><path fill="#555" d="M582.016 465.92l30.165333 30.165333-228.693333 228.693334-30.165333-30.16533401z" p-id="1680"/></svg>